<mxfile host="Electron" modified="2023-06-04T19:14:50.402Z" agent="Mozilla/5.0 (X11; Linux x86_64) AppleWebKit/537.36 (KHTML, like Gecko) draw.io/21.2.8 Chrome/106.0.5249.199 Electron/21.4.4 Safari/537.36" etag="N8sd-NHHYPLASzTDMfhH" version="21.2.8" type="device">
  <diagram name="Page-1" id="tqebg4iYv1f3CPlwxZ1Q">
    <mxGraphModel dx="786" dy="485" grid="1" gridSize="10" guides="1" tooltips="1" connect="1" arrows="1" fold="1" page="1" pageScale="1" pageWidth="850" pageHeight="1100" math="0" shadow="0">
      <root>
        <mxCell id="0" />
        <mxCell id="1" parent="0" />
        <mxCell id="iWYCYRVD9j1XGKtYw7wR-1" value="Gestion Jugador" style="shape=umlFrame;whiteSpace=wrap;html=1;pointerEvents=0;fillColor=#dae8fc;strokeColor=#6c8ebf;" vertex="1" parent="1">
          <mxGeometry x="105" y="250" width="640" height="400" as="geometry" />
        </mxCell>
        <mxCell id="iWYCYRVD9j1XGKtYw7wR-2" value="Administrador" style="shape=umlActor;verticalLabelPosition=bottom;verticalAlign=top;html=1;" vertex="1" parent="1">
          <mxGeometry x="40" y="420" width="30" height="60" as="geometry" />
        </mxCell>
        <mxCell id="iWYCYRVD9j1XGKtYw7wR-3" value="Crear Jugador" style="ellipse;whiteSpace=wrap;html=1;fillColor=#d5e8d4;strokeColor=#82b366;" vertex="1" parent="1">
          <mxGeometry x="190" y="300" width="110" height="70" as="geometry" />
        </mxCell>
        <mxCell id="iWYCYRVD9j1XGKtYw7wR-5" value="Borrar Jugador" style="ellipse;whiteSpace=wrap;html=1;fillColor=#d5e8d4;strokeColor=#82b366;" vertex="1" parent="1">
          <mxGeometry x="190" y="390" width="110" height="70" as="geometry" />
        </mxCell>
        <mxCell id="iWYCYRVD9j1XGKtYw7wR-7" value="Editar Jugador" style="ellipse;whiteSpace=wrap;html=1;fillColor=#d5e8d4;strokeColor=#82b366;" vertex="1" parent="1">
          <mxGeometry x="190" y="480" width="110" height="70" as="geometry" />
        </mxCell>
        <mxCell id="iWYCYRVD9j1XGKtYw7wR-8" value="" style="endArrow=none;html=1;rounded=0;entryX=0.018;entryY=0.714;entryDx=0;entryDy=0;entryPerimeter=0;" edge="1" parent="1" source="iWYCYRVD9j1XGKtYw7wR-2" target="iWYCYRVD9j1XGKtYw7wR-3">
          <mxGeometry width="50" height="50" relative="1" as="geometry">
            <mxPoint x="60" y="390" as="sourcePoint" />
            <mxPoint x="110" y="340" as="targetPoint" />
          </mxGeometry>
        </mxCell>
        <mxCell id="iWYCYRVD9j1XGKtYw7wR-9" value="" style="endArrow=none;html=1;rounded=0;entryX=0;entryY=0.5;entryDx=0;entryDy=0;exitX=1;exitY=0.3333333333333333;exitDx=0;exitDy=0;exitPerimeter=0;" edge="1" parent="1" source="iWYCYRVD9j1XGKtYw7wR-2" target="iWYCYRVD9j1XGKtYw7wR-5">
          <mxGeometry width="50" height="50" relative="1" as="geometry">
            <mxPoint x="80" y="448" as="sourcePoint" />
            <mxPoint x="202" y="350" as="targetPoint" />
          </mxGeometry>
        </mxCell>
        <mxCell id="iWYCYRVD9j1XGKtYw7wR-10" value="" style="endArrow=none;html=1;rounded=0;entryX=0;entryY=0.4;entryDx=0;entryDy=0;entryPerimeter=0;exitX=1;exitY=0.3333333333333333;exitDx=0;exitDy=0;exitPerimeter=0;" edge="1" parent="1" source="iWYCYRVD9j1XGKtYw7wR-2" target="iWYCYRVD9j1XGKtYw7wR-7">
          <mxGeometry width="50" height="50" relative="1" as="geometry">
            <mxPoint x="120" y="540" as="sourcePoint" />
            <mxPoint x="170" y="490" as="targetPoint" />
          </mxGeometry>
        </mxCell>
        <mxCell id="iWYCYRVD9j1XGKtYw7wR-11" value="Buscar Jugador" style="ellipse;whiteSpace=wrap;html=1;fillColor=#d5e8d4;strokeColor=#82b366;" vertex="1" parent="1">
          <mxGeometry x="400" y="440" width="110" height="70" as="geometry" />
        </mxCell>
        <mxCell id="iWYCYRVD9j1XGKtYw7wR-12" value="" style="endArrow=classic;html=1;rounded=0;exitX=0.973;exitY=0.657;exitDx=0;exitDy=0;exitPerimeter=0;" edge="1" parent="1" source="iWYCYRVD9j1XGKtYw7wR-5" target="iWYCYRVD9j1XGKtYw7wR-11">
          <mxGeometry width="50" height="50" relative="1" as="geometry">
            <mxPoint x="280" y="430" as="sourcePoint" />
            <mxPoint x="330" y="380" as="targetPoint" />
          </mxGeometry>
        </mxCell>
        <mxCell id="iWYCYRVD9j1XGKtYw7wR-13" value="&amp;lt;&amp;lt;includes&amp;gt;&amp;gt;" style="text;html=1;strokeColor=none;fillColor=none;align=center;verticalAlign=middle;whiteSpace=wrap;rounded=0;" vertex="1" parent="1">
          <mxGeometry x="330" y="420" width="60" height="30" as="geometry" />
        </mxCell>
        <mxCell id="iWYCYRVD9j1XGKtYw7wR-15" value="" style="endArrow=classic;html=1;rounded=0;exitX=1;exitY=0.5;exitDx=0;exitDy=0;entryX=0;entryY=1;entryDx=0;entryDy=0;" edge="1" parent="1" source="iWYCYRVD9j1XGKtYw7wR-7" target="iWYCYRVD9j1XGKtYw7wR-11">
          <mxGeometry width="50" height="50" relative="1" as="geometry">
            <mxPoint x="307" y="499" as="sourcePoint" />
            <mxPoint x="414" y="525" as="targetPoint" />
          </mxGeometry>
        </mxCell>
        <mxCell id="iWYCYRVD9j1XGKtYw7wR-16" value="&amp;lt;&amp;lt;includes&amp;gt;&amp;gt;" style="text;html=1;strokeColor=none;fillColor=none;align=center;verticalAlign=middle;whiteSpace=wrap;rounded=0;" vertex="1" parent="1">
          <mxGeometry x="310" y="483" width="60" height="30" as="geometry" />
        </mxCell>
      </root>
    </mxGraphModel>
  </diagram>
</mxfile>
